<svg width="254" height="67" viewBox="0 0 254 67" fill="none" xmlns="http://www.w3.org/2000/svg">
<path d="M34.2773 24V30.25H16.2109V24H34.2773ZM20.3125 16.8125H28.6328V44.7812C28.6328 45.5495 28.75 46.1484 28.9844 46.5781C29.2188 46.9948 29.5443 47.2878 29.9609 47.457C30.3906 47.6263 30.8854 47.7109 31.4453 47.7109C31.8359 47.7109 32.2266 47.6784 32.6172 47.6133C33.0078 47.5352 33.3073 47.4766 33.5156 47.4375L34.8242 53.6289C34.4076 53.7591 33.8216 53.9089 33.0664 54.0781C32.3112 54.2604 31.3932 54.3711 30.3125 54.4102C28.3073 54.4883 26.5495 54.2214 25.0391 53.6094C23.5417 52.9974 22.3763 52.0469 21.543 50.7578C20.7096 49.4687 20.2995 47.8411 20.3125 45.875V16.8125ZM39.6973 54V24H47.7637V29.2344H48.0762C48.623 27.3724 49.541 25.9661 50.8301 25.0156C52.1191 24.0521 53.6035 23.5703 55.2832 23.5703C55.6999 23.5703 56.1491 23.5964 56.6309 23.6484C57.1126 23.7005 57.5358 23.7721 57.9004 23.8633V31.2461C57.5098 31.1289 56.9694 31.0247 56.2793 30.9336C55.5892 30.8424 54.9577 30.7969 54.3848 30.7969C53.1608 30.7969 52.0671 31.0638 51.1035 31.5977C50.153 32.1185 49.3978 32.8477 48.8379 33.7852C48.291 34.7227 48.0176 35.8034 48.0176 37.0273V54H39.6973ZM69.8975 54.5664C67.9834 54.5664 66.2777 54.2344 64.7803 53.5703C63.2829 52.8932 62.098 51.8971 61.2256 50.582C60.3662 49.2539 59.9365 47.6003 59.9365 45.6211C59.9365 43.9544 60.2425 42.5547 60.8545 41.4219C61.4665 40.2891 62.2998 39.3776 63.3545 38.6875C64.4092 37.9974 65.6071 37.4766 66.9482 37.125C68.3024 36.7734 69.7217 36.526 71.2061 36.3828C72.9508 36.2005 74.3571 36.0312 75.4248 35.875C76.4925 35.7057 77.2673 35.4583 77.749 35.1328C78.2308 34.8073 78.4717 34.3255 78.4717 33.6875V33.5703C78.4717 32.3333 78.0811 31.3763 77.2998 30.6992C76.5316 30.0221 75.4378 29.6836 74.0186 29.6836C72.5212 29.6836 71.3298 30.0156 70.4443 30.6797C69.5589 31.3307 68.973 32.151 68.6865 33.1406L60.9912 32.5156C61.3818 30.6927 62.1501 29.1172 63.2959 27.7891C64.4417 26.4479 65.9196 25.4193 67.7295 24.7031C69.5524 23.974 71.6618 23.6094 74.0576 23.6094C75.7243 23.6094 77.3193 23.8047 78.8428 24.1953C80.3792 24.5859 81.7399 25.1914 82.9248 26.0117C84.1227 26.832 85.0667 27.8867 85.7568 29.1758C86.4469 30.4518 86.792 31.9818 86.792 33.7656V54H78.9014V49.8398H78.667C78.1852 50.7773 77.5407 51.6042 76.7334 52.3203C75.9261 53.0234 74.9561 53.5768 73.8232 53.9805C72.6904 54.3711 71.3818 54.5664 69.8975 54.5664ZM72.2803 48.8242C73.5042 48.8242 74.585 48.5833 75.5225 48.1016C76.46 47.6068 77.1956 46.9427 77.7295 46.1094C78.2633 45.276 78.5303 44.332 78.5303 43.2773V40.0938C78.2699 40.263 77.9118 40.4193 77.4561 40.5625C77.0133 40.6927 76.512 40.8164 75.9521 40.9336C75.3923 41.0378 74.8324 41.1354 74.2725 41.2266C73.7126 41.3047 73.2048 41.3763 72.749 41.4414C71.7725 41.5846 70.9196 41.8125 70.1904 42.125C69.4613 42.4375 68.8949 42.8607 68.4912 43.3945C68.0876 43.9154 67.8857 44.5664 67.8857 45.3477C67.8857 46.4805 68.2959 47.3464 69.1162 47.9453C69.9495 48.5312 71.0042 48.8242 72.2803 48.8242ZM106.802 54.5859C103.729 54.5859 101.086 53.9349 98.8721 52.6328C96.6715 51.3177 94.9788 49.4948 93.7939 47.1641C92.6221 44.8333 92.0361 42.151 92.0361 39.1172C92.0361 36.0443 92.6286 33.349 93.8135 31.0312C95.0114 28.7005 96.7106 26.8841 98.9111 25.582C101.112 24.2669 103.729 23.6094 106.763 23.6094C109.38 23.6094 111.672 24.0846 113.638 25.0352C115.604 25.9857 117.16 27.3203 118.306 29.0391C119.451 30.7578 120.083 32.776 120.2 35.0938H112.349C112.127 33.5964 111.541 32.3919 110.591 31.4805C109.653 30.556 108.423 30.0937 106.899 30.0937C105.61 30.0937 104.484 30.4453 103.521 31.1484C102.57 31.8385 101.828 32.8477 101.294 34.1758C100.76 35.5039 100.493 37.112 100.493 39C100.493 40.9141 100.754 42.5417 101.274 43.8828C101.808 45.224 102.557 46.2461 103.521 46.9492C104.484 47.6523 105.61 48.0039 106.899 48.0039C107.85 48.0039 108.703 47.8086 109.458 47.418C110.226 47.0273 110.858 46.4609 111.353 45.7187C111.86 44.9635 112.192 44.0586 112.349 43.0039H120.2C120.07 45.2956 119.445 47.3138 118.325 49.0586C117.218 50.7904 115.688 52.1445 113.735 53.1211C111.782 54.0977 109.471 54.5859 106.802 54.5859ZM133.066 45.3672L133.086 35.3867H134.297L143.906 24H153.457L140.547 39.0781H138.574L133.066 45.3672ZM125.527 54V14H133.848V54H125.527ZM144.277 54L135.449 40.9336L140.996 35.0547L154.023 54H144.277ZM182.5 32.5547L174.883 33.0234C174.753 32.3724 174.473 31.7865 174.043 31.2656C173.613 30.7318 173.047 30.3086 172.344 29.9961C171.654 29.6706 170.827 29.5078 169.863 29.5078C168.574 29.5078 167.487 29.7812 166.602 30.3281C165.716 30.862 165.273 31.5781 165.273 32.4766C165.273 33.1927 165.56 33.7982 166.133 34.293C166.706 34.7878 167.689 35.1849 169.082 35.4844L174.512 36.5781C177.428 37.1771 179.603 38.1406 181.035 39.4687C182.467 40.7969 183.184 42.5417 183.184 44.7031C183.184 46.6693 182.604 48.3945 181.445 49.8789C180.299 51.3633 178.724 52.5221 176.719 53.3555C174.727 54.1758 172.428 54.5859 169.824 54.5859C165.853 54.5859 162.689 53.7591 160.332 52.1055C157.988 50.4388 156.615 48.1732 156.211 45.3086L164.395 44.8789C164.642 46.0898 165.241 47.0143 166.191 47.6523C167.142 48.2773 168.359 48.5898 169.844 48.5898C171.302 48.5898 172.474 48.3099 173.359 47.75C174.258 47.1771 174.714 46.4414 174.727 45.543C174.714 44.7878 174.395 44.1693 173.77 43.6875C173.145 43.1927 172.181 42.8151 170.879 42.5547L165.684 41.5195C162.754 40.9336 160.573 39.918 159.141 38.4727C157.721 37.0273 157.012 35.1849 157.012 32.9453C157.012 31.0182 157.533 29.3581 158.574 27.9648C159.629 26.5716 161.107 25.4974 163.008 24.7422C164.922 23.987 167.161 23.6094 169.727 23.6094C173.516 23.6094 176.497 24.4102 178.672 26.0117C180.859 27.6133 182.135 29.7943 182.5 32.5547ZM188.423 54V24H196.743V54H188.423ZM192.603 20.1328C191.366 20.1328 190.304 19.7227 189.419 18.9023C188.547 18.069 188.11 17.0729 188.11 15.9141C188.11 14.7682 188.547 13.7852 189.419 12.9648C190.304 12.1315 191.366 11.7148 192.603 11.7148C193.84 11.7148 194.894 12.1315 195.767 12.9648C196.652 13.7852 197.095 14.7682 197.095 15.9141C197.095 17.0729 196.652 18.069 195.767 18.9023C194.894 19.7227 193.84 20.1328 192.603 20.1328ZM219.541 24V30.25H201.025V24H219.541ZM205.264 54V21.832C205.264 19.6575 205.687 17.8542 206.533 16.4219C207.393 14.9896 208.564 13.9154 210.049 13.1992C211.533 12.4831 213.219 12.125 215.107 12.125C216.383 12.125 217.549 12.2227 218.604 12.418C219.671 12.6133 220.465 12.7891 220.986 12.9453L219.502 19.1953C219.176 19.0911 218.773 18.9935 218.291 18.9023C217.822 18.8112 217.34 18.7656 216.846 18.7656C215.622 18.7656 214.769 19.0521 214.287 19.625C213.805 20.1849 213.564 20.9727 213.564 21.9883V54H205.264ZM229.761 65.25C228.706 65.25 227.716 65.1654 226.792 64.9961C225.881 64.8398 225.125 64.638 224.526 64.3906L226.401 58.1797C227.378 58.4792 228.257 58.6419 229.038 58.668C229.832 58.694 230.516 58.5117 231.089 58.1211C231.675 57.7305 232.15 57.0664 232.515 56.1289L233.003 54.8594L222.241 24H230.991L237.202 46.0312H237.515L243.784 24H252.593L240.933 57.2422C240.373 58.8568 239.611 60.263 238.647 61.4609C237.697 62.6719 236.493 63.6029 235.034 64.2539C233.576 64.918 231.818 65.25 229.761 65.25Z" fill="#0F8BFD"/>
<rect y="5" width="15" height="15" fill="#535F75"/>
</svg>
